PathFileType	4	(X/Y/Z)	C:/Users/beibeiliu/ov580/test_trc/User2\sequence.25_training_dense_right.trc
DataRate	CameraRate	NumFrames	NumMarkers	Units	OrigDataRate	OrigDataStartFrame	OrigNumFrames
120	120	18	19	mm	120	103	272
Frame#	Time	ThumbCMC			ThumbMCP			ThumbIP			ThumbTip			IndexMCP			IndexPIP			IndexTip			MiddleMCP			MiddlePIP			MiddleTip			RingMCP			RingPIP			RingTip			PinkyMCP			PinkyPIP			PinkyTip			BackHand1			BackHand2			BackHand3	
		X0	Y0	Z0	X1	Y1	Z1	X2	Y2	Z2	X3	Y3	Z3	X4	Y4	Z4	X5	Y5	Z5	X6	Y6	Z6	X7	Y7	Z7	X8	Y8	Z8	X9	Y9	Z9	X10	Y10	Z10	X11	Y11	Z11	X12	Y12	Z12	X13	Y13	Z13	X14	Y14	Z14	X15	Y15	Z15	X16	Y16	Z16	X17	Y17	Z17	X18	Y18	Z18	
102	0.85	131.442	-27.2871	47.9637	120.511	-17.1687	18.4106	106.716	-15.0315	-16.2876	94.4339	-11.0206	-31.94	89.7685	-48.3829	-14.6585	69.5024	-22.0467	-17.0222	74.9931	-5.45498	16.0122	67.9932	-55.2849	-5.41927	53.1183	-20.9733	1.6379	76.3355	-15.9816	37.2922	51.9008	-61.6656	8.13468	42.918	-31.6451	8.4409	68.0834	-28.8828	35.6325	45.1347	-76.7326	27.339	27.0503	-73.4585	8.87081	11.0439	-72.2092	-9.48373	90.5456	-81.4496	52.9548	107.002	-77.7634	87.2548	124.534	-68.0075	53.4491	
103	0.858333	133.574	-24.2649	48.1001	119.038	-16.7955	19.9543	105.343	-15.1938	-11.8406	93.2084	-13.1217	-36.4459	85.2002	-47.3412	-14.506	69.2243	-18.0649	-14.9792	77.4503	-3.16305	16.5319	65.5292	-55.3784	-3.4033	54.2528	-20.3652	0.789941	74.9114	-12.9147	32.6532	50.6831	-60.5231	5.53205	40.3977	-33.2318	8.68663	64.5265	-28.8339	36.0367	41.9932	-77.6054	28.7621	27.6252	-74.4981	10.342	11.5127	-74.5687	-8.5772	88.6948	-81.8518	55.7853	107.493	-77.0799	85.8888	127.872	-65.4404	52.1432	
104	0.866667	128.549	-24.3632	51.7944	119.178	-14.6246	17.5656	102.426	-15.2354	-11.7221	90.639	-11.4924	-31.4735	89.9129	-45.5628	-15.6116	68.0977	-16.8481	-15.4421	72.464	-6.15916	18.2387	67.7562	-52.8161	-8.16965	50.3049	-22.6016	1.37283	70.3095	-14.8539	35.4087	49.3668	-62.7112	6.35084	41.3485	-32.0427	8.0441	62.7141	-31.5045	38.0787	44.286	-79.352	30.4912	25.2978	-77.1227	11.0565	9.50771	-77.5194	-12.1744	91.7172	-81.7081	57.7282	106.22	-76.5534	87.528	123.454	-64.4927	55.2025	
105	0.875	126.942	-23.2403	50.6692	115.245	-12.0086	19.4714	99.733	-11.071	-13.3936	86.3546	-10.1507	-32.9188	86.5364	-43.4626	-16.0471	65.7979	-18.8353	-14.5438	68.5871	-6.06004	17.3189	66.4248	-54.0864	-6.50907	47.9251	-26.0439	0.416921	68.2482	-16.0599	35.7387	50.167	-62.6115	3.0226	40.5861	-34.5792	8.47428	61.7175	-30.7491	35.0475	45.3261	-82.9657	28.1518	25.8231	-81.2	6.0743	10.6109	-82.221	-10.5638	91.6028	-82.4376	53.2559	108.947	-77.6849	83.5779	125.016	-61.8599	50.4083	
106	0.883333	125.916	-18.2933	50.776	111.937	-9.03194	21.7114	95.7436	-9.47675	-11.0968	82.6595	-6.52973	-28.2147	82.862	-43.2757	-13.4105	60.8008	-22.5445	-12.4404	63.4009	-7.96333	22.6506	63.4605	-55.1025	-5.64547	44.0256	-26.3944	4.32634	66.3354	-18.2247	40.0221	50.835	-65.3543	2.90724	37.1873	-39.8122	8.73565	60.1922	-33.4027	34.6741	46.3565	-86.6585	29.1253	24.112	-86.9413	7.12874	10.0329	-88.9294	-7.91209	91.5877	-86.9033	53.0993	107.338	-81.027	84.9585	124.589	-61.9179	49.6055	
107	0.891667	121.048	-15.9774	53.2188	104.042	-10.5936	24.6164	90.1834	-8.92651	-9.0676	79.2258	-3.43211	-29.5428	83.3631	-40.7237	-13.9173	57.8494	-16.8982	-10.1382	61.2768	-7.78463	26.8222	63.5646	-53.6455	-7.68485	43.0668	-27.59	4.15401	57.2334	-21.295	40.5086	51.3869	-66.4901	4.186	33.3801	-41.7186	14.7035	58.7259	-36.5876	37.146	46.4136	-90.3167	25.3525	30.1345	-90.8741	8.48978	13.9913	-92.6248	-13.035	92.6956	-85.5989	52.6358	109.665	-79.7439	79.8823	124.878	-58.7454	51.75	
108	0.9	115.989	-17.3217	55.5833	101.232	-8.79072	22.5252	87.3071	-4.33816	-8.89818	74.2543	-4.34691	-28.1956	81.8617	-41.7904	-11.8888	53.0478	-19.5182	-6.60551	57.1694	-8.29873	27.7047	67.5977	-56.4698	-4.67573	38.016	-33.3915	5.56107	55.4433	-20.5098	39.9415	48.3589	-67.4488	4.00041	31.3201	-44.726	15.6942	57.305	-40.1734	42.9607	46.7662	-92.6469	22.657	31.5766	-92.4408	7.30493	13.5118	-97.8832	-11.9098	93.0767	-85.3976	53.8902	111.527	-78.4113	79.7612	125.221	-58.6853	51.6734	
109	0.908333	114.888	-15.5627	53.7587	98.4753	-9.32392	26.1676	82.5637	-8.30326	-9.19629	70.0889	-7.23132	-28.5415	82.4907	-42.2524	-11.3991	53.6155	-23.884	-9.53641	52.1669	-10.3802	27.8	60.5609	-58.9103	-4.59568	39.2897	-32.8199	4.26794	50.3809	-23.3104	41.6151	46.9399	-72.074	7.30112	29.2913	-49.4024	15.0177	53.8178	-40.6639	42.2996	50.0403	-93.9261	23.4948	29.1287	-96.1536	6.44621	14.0934	-98.1347	-12.2581	94.4207	-84.8039	53.4544	109.639	-80.707	82.3771	121.939	-56.6412	54.3807	
110	0.916667	113.289	-17.6201	50.3165	96.0839	-10.5423	23.3477	83.2085	-7.71427	-8.4115	70.4093	-8.21419	-31.2464	79.477	-49.0072	-9.59021	50.3726	-27.923	-7.28275	50.5458	-11.7439	23.7064	65.6025	-60.9689	-4.61016	36.3278	-35.9106	8.12277	50.7051	-23.7842	42.4751	49.6414	-75.055	8.89687	32.1684	-46.9409	15.3074	52.857	-40.7155	39.9719	49.4749	-97.2824	25.5369	32.0051	-96.8235	6.81221	14.0122	-104.797	-10.1892	93.8746	-86.5096	56.3366	108.72	-77.5575	86.033	122.761	-58.7613	52.3476	
111	0.925	111.468	-22.2593	51.5264	96.6346	-15.0736	23.7495	84.875	-13.3873	-8.80965	71.4459	-15.6284	-30.2959	80.2427	-53.7665	-11.4377	51.9967	-32.719	-10.6173	52.8932	-15.2939	20.2389	64.2512	-67.6651	-3.32054	39.2159	-40.9251	1.9902	53.5265	-24.9249	40.3976	48.5448	-79.3338	9.26204	33.2975	-52.6455	13.5686	55.9766	-44.4086	41.7483	51.5606	-98.3119	28.552	31.6276	-101.856	8.64126	16.3304	-108.179	-7.85494	95.723	-87.4315	52.7164	106.736	-81.9866	86.3744	124.396	-60.0147	56.6516	
112	0.933333	115.278	-26.3087	49.6349	99.6462	-24.4286	20.3261	87.9923	-23.1483	-11.0027	75.0105	-25.7413	-34.6352	86.1073	-59.2859	-12.2221	55.8786	-40.6966	-12.6321	54.4786	-23.8889	14.5055	66.2349	-70.6559	-6.21022	41.0632	-48.8472	0.539235	55.3899	-27.2317	34.0711	52.3439	-83.1224	6.14119	35.4101	-56.5591	12.3695	58.2092	-48.6195	41.2521	51.4973	-104.891	30.4932	32.0132	-111.167	10.6529	17.9073	-114.888	-9.02783	95.791	-94.9179	55.8972	108.212	-83.8407	86.907	123.219	-64.5091	55.6208	
113	0.941667	119.689	-26.3697	49.6675	104.98	-21.8104	19.0723	92.6589	-28.5715	-15.7016	79.9493	-29.7542	-34.8376	88.7735	-66.6764	-12.2555	63.7174	-45.6084	-18.4815	57.8144	-27.1735	16.1198	69.1163	-79.5617	-2.10184	43.293	-50.5016	2.47717	54.793	-32.3393	30.8616	55.8961	-86.6185	6.35517	35.3517	-62.9229	11.8795	60.4591	-50.4054	39.1718	52.5044	-109.035	28.6881	37.2582	-113.343	7.52156	22.8327	-120.49	-6.65959	96.5955	-94.9612	56.4252	109.298	-81.3528	89.8477	125.939	-65.8188	58.2574	
114	0.95	119.648	-29.1671	47.723	106.178	-25.8446	20.2331	94.2418	-30.7801	-10.9017	82.9847	-36.3002	-36.3035	92.1771	-67.2393	-13.8704	64.6492	-48.3456	-17.643	60.1486	-30.4727	13.1965	70.4794	-82.0402	-4.70193	49.1	-54.3223	-3.58694	57.9125	-33.6311	28.5824	59.2889	-89.5502	4.43865	39.2711	-63.5149	9.73171	57.2112	-52.0776	35.8739	55.8069	-111.613	31.1434	39.1478	-116.988	8.638	26.1308	-123.399	-6.62551	99.3892	-96.0861	61.6637	112.238	-84.5319	85.5647	128.213	-65.8586	58.2579	
115	0.958333	121.017	-26.6499	51.3121	108.193	-24.4862	18.9445	97.7995	-28.9651	-13.0579	84.5737	-36.3917	-34.3418	94.2647	-70.3396	-12.1043	66.5442	-48.926	-18.9364	64.7962	-27.4491	11.7995	75.6289	-80.9647	-6.04509	47.6701	-53.087	-0.715718	62.2085	-31.929	30.5159	60.8966	-93.0405	8.82197	42.5663	-66.3311	5.45997	58.9823	-53.0631	35.344	59.2253	-110.403	28.1741	43.0317	-116.104	6.66394	31.7732	-123.525	-10.4066	100.648	-94.6963	61.2603	111.84	-82.7139	88.6488	128.83	-70.7561	58.0774	
116	0.966667	119.064	-30.293	51.6074	106.948	-25.4248	19.4551	97.7674	-28.1404	-14.7084	86.6768	-31.8448	-32.8009	95.0439	-67.9396	-12.6315	66.7473	-45.448	-18.809	63.4578	-30.2199	14.8115	76.4314	-77.5578	-7.56052	48.692	-52.6166	0.0853414	59.4539	-34.331	32.4508	60.4905	-89.0573	4.65979	41.5178	-65.5533	7.18339	59.5547	-52.2413	34.1873	61.8424	-109.558	26.6874	46.4267	-115.403	10.8879	33.8309	-122.59	-12.5064	101.723	-94.9061	56.4964	114.939	-82.4917	90.6556	131.955	-66.6092	59.6362	
117	0.975	116.515	-28.0672	53.3349	105.547	-20.9089	22.0726	93.6085	-28.0696	-9.14266	84.5802	-28.1954	-34.8788	93.6959	-61.5463	-15.7491	66.7976	-43.4448	-18.1641	61.5537	-27.7457	14.3533	75.585	-75.6006	-5.93187	50.5874	-52.3739	-4.35132	58.0707	-32.3032	32.5216	58.9615	-88.2337	6.97732	41.8817	-63.3757	9.03235	63.4005	-49.5456	37.4166	58.6919	-110.244	26.5989	46.4131	-114.05	10.4739	33.3391	-122.172	-13.3155	102.156	-92.7133	56.5683	110.001	-83.0287	91.4745	128.314	-66.0724	56.0269	
118	0.983333	115.815	-22.516	55.599	100.433	-21.8222	22.8715	89.8904	-20.7103	-7.62752	79.7162	-24.6462	-31.4246	93.5958	-58.3083	-12.0504	63.8696	-41.3009	-17.4234	57.9769	-24.4851	15.2079	75.7506	-72.6531	-3.18306	47.0304	-49.6654	-1.67149	53.2314	-32.8684	36.2806	55.0319	-84.5316	6.57275	38.7283	-58.7332	14.8705	61.1691	-46.6496	38.8959	60.6265	-106.08	29.8515	41.4955	-114.486	7.44697	33.7724	-118.951	-10.7601	101.862	-92.0498	59.4886	109.931	-82.2991	90.5721	127.611	-64.8119	56.8834	
119	0.991667	109.456	-19.7007	56.5823	95.0434	-15.4802	25.8193	83.1486	-17.5828	-3.76838	71.1475	-19.1576	-26.7524	90.2834	-52.3563	-10.4982	57.1224	-39.6712	-12.5819	51.4556	-25.1584	18.6279	69.7328	-67.9051	-4.53595	41.693	-46.052	3.05124	46.8764	-33.0268	38.7647	57.757	-80.2362	8.22171	35.8052	-57.0489	17.6335	56.3724	-46.0436	40.3715	59.4254	-105.599	30.8536	43.4257	-110.487	5.68317	33.3651	-117.219	-12.8931	101.061	-86.349	58.9321	111.986	-79.2498	86.5388	125.043	-56.348	57.1711	
